HIERARCHY
ROOT root
{
	OFFSET	0	13.1	24.9
	CHANNELS 6  Xposition Yposition Zposition Xrotation Yrotation Zrotation
	JOINT spine_1
	{
		OFFSET	0	9.99999	0
		CHANNELS 3  Xrotation Yrotation Zrotation
		JOINT spine_2
		{
			OFFSET	0	112	-10
			CHANNELS 3  Xrotation Yrotation Zrotation
			JOINT spine_3
			{
				OFFSET	0	206.5	19.3
				CHANNELS 3  Xrotation Yrotation Zrotation
				JOINT spine_4
				{
					OFFSET	0	110.4	14.6
					CHANNELS 3  Xrotation Yrotation Zrotation
					JOINT neck_1
					{
						OFFSET	0	71.8	-50.3
						CHANNELS 3  Xrotation Yrotation Zrotation
						JOINT neck_2
						{
							OFFSET	0	86.2	-25.8
							CHANNELS 3  Xrotation Yrotation Zrotation
							JOINT head_ee
							{
								OFFSET	0	179.8	-8.7
								CHANNELS 3  Xrotation Yrotation Zrotation
								End Site
								{
									OFFSET	1	0	0
								}
							}
						}
					}
					JOINT left_clavicle
					{
						OFFSET	-43.2	22.4	-70.8
						CHANNELS 3  Xrotation Yrotation Zrotation
						JOINT left_shoulder
						{
							OFFSET	-93.9	-5.79999	48.7
							CHANNELS 3  Xrotation Yrotation Zrotation
							JOINT left_elbow
							{
								OFFSET	-291.4	-30.8	15.2
								CHANNELS 3  Xrotation Yrotation Zrotation
								JOINT left_lowarm_twist
								{
									OFFSET	-110.7	-3.89999	13.6
									CHANNELS 3  Xrotation Yrotation Zrotation
									JOINT left_hand
									{
										OFFSET	-110.7	-3.89999	13.6
										CHANNELS 3  Xrotation Yrotation Zrotation
										JOINT left_ee
										{
											OFFSET	-80.8	-5.10001	12.1
											CHANNELS 3  Xrotation Yrotation Zrotation
											End Site
											{
												OFFSET	1	0	0
											}
										}
									}
								}
							}
						}
					}
					JOINT right_clavicle
					{
						OFFSET	43.2	22.4	-70.8
						CHANNELS 3  Xrotation Yrotation Zrotation
						JOINT right_shoulder
						{
							OFFSET	93.9	-5.79999	48.7
							CHANNELS 3  Xrotation Yrotation Zrotation
							JOINT right_elbow
							{
								OFFSET	291.4	-30.8	15.2
								CHANNELS 3  Xrotation Yrotation Zrotation
								JOINT right_lowarm_twist
								{
									OFFSET	110.7	-3.89999	13.6
									CHANNELS 3  Xrotation Yrotation Zrotation
									JOINT right_hand
									{
										OFFSET	110.7	-3.89999	13.6
										CHANNELS 3  Xrotation Yrotation Zrotation
										JOINT right_ee
										{
											OFFSET	80.8	-5.10001	12.1
											CHANNELS 3  Xrotation Yrotation Zrotation
											End Site
											{
												OFFSET	1	0	0
											}
										}
									}
								}
							}
						}
					}
				}
			}
		}
	}
	JOINT left_hip
	{
		OFFSET	-82.8	-127.5	0.300001
		CHANNELS 3  Xrotation Yrotation Zrotation
		JOINT left_knee
		{
			OFFSET	-28.2	-396.7	2.2
			CHANNELS 3  Xrotation Yrotation Zrotation
			JOINT left_ankle
			{
				OFFSET	-11.7	-411.3	35.4
				CHANNELS 3  Xrotation Yrotation Zrotation
				JOINT left_toes
				{
					OFFSET	0	-60	-88.6
					CHANNELS 3  Xrotation Yrotation Zrotation
					JOINT left_foot_ee
					{
						OFFSET	-22.5	-16.5	-42.2
						CHANNELS 3  Xrotation Yrotation Zrotation
						End Site
						{
							OFFSET	1	0	0
						}
					}
				}
			}
		}
	}
	JOINT right_hip
	{
		OFFSET	82.8	-127.5	0.300001
		CHANNELS 3  Xrotation Yrotation Zrotation
		JOINT right_knee
		{
			OFFSET	28.2	-396.7	2.2
			CHANNELS 3  Xrotation Yrotation Zrotation
			JOINT right_ankle
			{
				OFFSET	11.7	-411.3	35.4
				CHANNELS 3  Xrotation Yrotation Zrotation
				JOINT right_toes
				{
					OFFSET	0	-60	-88.6
					CHANNELS 3  Xrotation Yrotation Zrotation
					JOINT right_foot_ee
					{
						OFFSET	22.5	-16.5	-42.2
						CHANNELS 3  Xrotation Yrotation Zrotation
						End Site
						{
							OFFSET	1	0	0
						}
					}
				}
			}
		}
	}
}
MOTION
Frames: 5
Frame Time: 0.02
1399.48 686.501 -1438.65 -7.40442 58.2692 6.92057 3.17741 0.2169 0.619702 3.1776 0.177028 0.632247 3.1795 0.0764837 0.652092 3.17895 0.178508 0.631831 -8.37128 11.467 1.86194 -8.42727 20.1564 4.42819 -0.0 0.0 -0.0 4.19231 12.2733 8.47264 -42.1493 -27.3033 54.9716 1.02777 -26.9813 0.246575 73.6027 -3.12252 -8.20883 -0.153191 11.6212 3.82244 -0.0 0.0 -0.0 10.6464 -1.76985 -20.882 -15.6382 26.92 -58.1106 1.2591 31.9512 -0.360474 -2.91392 0.11174 -0.355255 0.719772 13.7078 0.985505 0.0 0.0 0.0 34.1301 -16.4815 -8.90228 -1.91747 0.0741881 0.2849 -2.68037 7.14041 0.394722 34.7639 -0.0 -0.0 -0.0 0.0 -0.0 -15.6856 25.3056 -0.566691 -8.63436 -0.258045 -1.29874 41.5594 -19.5517 5.15941 15.1223 -0.0 -0.0 0.0 0.0 0.0 
1386.14 709.609 -1447.05 -7.7909 57.8509 8.91526 2.87429 0.104547 0.159472 2.8743 0.0941878 0.165801 2.87457 0.0662868 0.178794 2.87454 0.0936921 0.166082 -10.0714 11.1729 2.31327 -10.1879 19.4983 5.08422 -0.0 0.0 -0.0 4.25863 12.5267 8.58821 -41.414 -28.0297 53.8888 1.12394 -29.1068 0.291798 73.7709 -3.14075 -8.22038 0.0791985 10.3848 4.80615 -0.0 0.0 -0.0 10.4813 -3.28433 -20.4322 -16.5444 26.6612 -58.7983 1.18602 30.4341 -0.322625 -5.99558 0.249433 -0.72436 0.489301 12.0346 1.81715 0.0 0.0 0.0 33.4784 -16.0771 -10.0248 -4.7387 0.165896 0.708121 -6.7782 9.58161 1.00577 34.816 -0.0 -0.0 -0.0 0.0 -0.0 -16.0153 24.8187 -0.874804 -8.80936 -0.261239 -1.3254 41.2728 -17.9566 5.09879 15.2971 -0.0 -0.0 0.0 0.0 0.0 
1351.02 714.338 -1455.76 -7.0061 56.2249 8.98917 2.65569 0.0987032 -0.268455 2.65572 0.115586 -0.261631 2.65518 0.157089 -0.239026 2.65512 0.117368 -0.260836 -11.2082 11.0698 2.91134 -11.3544 19.0425 5.82229 -0.0 0.0 -0.0 4.37869 12.7072 8.79242 -40.9017 -28.4672 53.1949 1.20358 -30.803 0.331567 74.1655 -3.18367 -8.24728 0.228127 9.71642 5.49645 -0.0 0.0 -0.0 10.5086 -4.42774 -20.3935 -18.4777 25.9477 -58.6018 1.09647 28.5083 -0.278561 -8.59166 0.380727 -1.02927 0.221936 9.91578 2.71522 0.0 0.0 0.0 33.0331 -15.7548 -10.5249 -7.98067 0.245391 1.19922 -12.385 11.4583 1.85391 34.3115 -0.0 -0.0 -0.0 0.0 -0.0 -16.5825 24.5252 -1.20415 -9.67492 -0.275842 -1.45741 40.7229 -16.188 5.01647 15.3856 -0.0 -0.0 0.0 0.0 0.0 
1323.17 704.158 -1463.97 -6.25034 55.3864 8.52425 2.97602 0.11508 -0.422737 2.9761 0.141747 -0.414558 2.97504 0.205922 -0.386713 2.97486 0.142264 -0.414381 -8.9634 12.5586 3.55979 -9.03236 21.113 6.44896 -0.0 0.0 -0.0 4.47615 12.7881 8.95699 -40.6338 -28.7637 52.7265 1.18428 -30.3972 0.321741 73.7624 -3.13983 -8.2198 0.288888 9.92456 5.97083 -0.0 0.0 -0.0 10.623 -4.88671 -20.5819 -19.7715 25.0854 -58.0481 0.969918 25.6624 -0.22092 -9.89075 0.451593 -1.17957 0.0294986 6.53018 2.5715 0.0 0.0 0.0 31.5838 -15.8214 -11.8652 -11.3657 0.298607 1.71584 -18.3746 14.2888 2.77357 33.5785 -0.0 -0.0 -0.0 0.0 -0.0 -17.1505 24.0387 -1.43222 -10.6885 -0.290405 -1.61226 40.747 -15.273 5.00339 15.4459 -0.0 -0.0 0.0 0.0 0.0 
1301.67 712.622 -1469.61 -6.0384 54.8797 9.10123 2.99355 0.0644907 -0.591984 2.99374 0.102029 -0.58668 2.99262 0.193934 -0.563022 2.9922 0.102583 -0.586584 -7.26879 13.6349 4.04066 -7.25399 22.5124 6.85842 -0.0 0.0 -0.0 4.48131 12.8364 8.96602 -40.5773 -29.1719 52.3208 1.22321 -31.2122 0.341678 73.4804 -3.10928 -8.2004 0.387127 9.91636 6.60128 -0.0 0.0 -0.0 10.5439 -6.47635 -20.2731 -21.0369 24.3405 -57.762 0.886669 23.7122 -0.186145 -11.3904 0.537625 -1.35105 -0.0638071 4.16152 2.19201 0.0 0.0 0.0 30.112 -15.6899 -12.5721 -17.1975 0.318474 2.61001 -23.6875 16.2468 3.59458 32.5235 -0.0 -0.0 -0.0 0.0 -0.0 -16.8811 23.731 -1.80999 -9.30615 -0.269864 -1.40114 40.4553 -14.6723 4.96836 15.4873 -0.0 -0.0 0.0 0.0 0.0 
